<?xml version="1.0" encoding="UTF-8"?>
<svg fill="none" viewBox="0 0 1920 1024" xmlns="http://www.w3.org/2000/svg">
<path d="m0-165.04c57.17-53.437 202.72-70.543 302.65-56.016 154.2 22.426 220.52 124.48 396.51 121.51 180.21-3.0276 260.4-115.12 480.91-121.51 220.51-6.391 297.61 153.07 427.14 154.99s172.71-107.83 312.79-111.43v718.54h-1920v-706.08z" fill="#DEE0E7"/>
<path d="m1920 959.24c-61.99 56.762-219.82 74.942-328.19 59.502-167.21-23.82-239.12-132.23-429.96-129.08-195.42 3.216-282.37 122.29-521.49 129.08-239.12 6.79-322.72-162.6-463.18-164.64-140.46-2.038-187.28 114.55-339.18 118.38v-763.3h2082v750.06z" fill="#DEE0E7"/>
<path d="m1920-129.81v1027.6c-50.78 0.683-73.39 9.616-137.31 39.284-284.23 131.88-435.11-72.478-627.29-72.478s-245.18 84.681-414.81 99.741c-169.62 15.059-260.61-130.81-488.82-139.26-72.429-2.672-177.34 16.951-251.77 59.75v-1027.6c74.439-42.81 179.34-62.422 251.78-59.749 228.21 8.433 319.2 154.3 488.82 139.26 169.63-15.059 222.63-99.741 414.81-99.741s343.06 204.34 627.29 72.465c63.92-29.655 86.52-38.6 137.31-39.283l-0.01 0.012z" fill="#000936"/>
<g filter="url(#bt)">
<mask id="bs" x="0" y="-203" width="1920" height="1185" style="mask-type:alpha" maskUnits="userSpaceOnUse">
<path d="m1920-129.81v1027.6c-50.78 0.683-73.39 9.616-137.31 39.284-284.23 131.88-435.11-72.478-627.29-72.478s-245.18 84.681-414.81 99.741c-169.62 15.059-260.61-130.81-488.82-139.26-72.429-2.672-177.34 16.951-251.77 59.75v-1027.6c74.439-42.81 179.34-62.422 251.78-59.749 228.21 8.433 319.2 154.3 488.82 139.26 169.63-15.059 222.63-99.741 414.81-99.741s343.06 204.34 627.29 72.465c63.92-29.655 86.52-38.6 137.31-39.283l-0.01 0.012z" fill="#000936"/>
</mask>
<g mask="url(#bs)">
<g opacity=".7">
<g stroke-linecap="round" stroke-linejoin="round" stroke-width=".77" style="mix-blend-mode:screen">
<path d="m-90.366 568.35 98.891-96.657-98.891-35.609v132.27z" stroke="url(#br)"/>
<path d="m8.5254 471.69-23.738-81.391-75.153 45.782 98.891 35.609z" stroke="url(#bg)"/>
<path d="m8.5254 470.69 94.902-35.609-118.64-45.782 23.738 81.391z" stroke="url(#ax)"/>
<path d="m103.43 436.08-38.979-59.344-79.66 13.562 118.64 45.782z" stroke="url(#am)"/>
<path d="m-15.212 390.3-29.48-49.873 109.14 36.311-79.66 13.562z" stroke="url(#ab)"/>
<path d="m-44.693 340.43 78.625-43.392 30.515 79.703-109.14-36.311z" stroke="url(#s)"/>
<path d="m-44.693 340.43 38.278-81.574 40.348 38.182-78.625 43.392z" stroke="url(#h)"/>
<path d="m64.448 376.74 66.105-49.188-96.62-30.515 30.515 79.703z" stroke="url(#e)"/>
<path d="m33.933 297.04 69.494-64.438-109.84 26.256 40.348 38.182z" stroke="url(#d)"/>
<path d="m-6.4151 258.85 23.404-56.788 86.438 30.532-109.84 26.256z" stroke="url(#c)"/>
<path d="m16.989 202.07-69.778-50.859 46.374 107.65 23.404-56.788z" stroke="url(#bq)"/>
<path d="m-52.789 151.21 117.24-49.572h-154.81l37.577 49.572z" stroke="url(#bp)"/>
<path d="m-52.789 151.21h117.24l-47.459 50.859-69.778-50.859z" stroke="url(#bo)"/>
<path d="m64.448 151.21v-49.572l-117.24 49.572h117.24z" stroke="url(#bn)"/>
<path d="m130.55 327.55 84.735 30.532-67.791-93.266-16.944 62.734z" stroke="url(#bm)"/>
<path d="m147.5 264.82-44.07-32.219 27.126 94.953 16.944-62.734z" stroke="url(#bl)"/>
<path d="m103.43 232.6-69.494 64.438 96.62 30.515-27.126-94.953z" stroke="url(#bk)"/>
<path d="m64.448 151.21 38.979 81.391-86.438-30.532 47.459-50.859z" stroke="url(#bj)"/>
<path d="m64.448 151.21h91.513l-91.513-49.572v49.572z" stroke="url(#bi)"/>
<path d="m155.96 151.21-52.534 81.391-38.979-81.391h91.513z" stroke="url(#bh)"/>
<path d="m155.96 151.21-8.464 113.61-44.07-32.219 52.534-81.391z" stroke="url(#bf)"/>
<path d="m215.29 358.08v-117l-67.791 23.734 67.791 93.266z" stroke="url(#be)"/>
<path d="m147.5 264.82 8.464-113.61 59.327 89.876-67.791 23.734z" stroke="url(#bd)"/>
<path d="m155.96 151.21 59.327-49.572h-150.84l91.513 49.572z" stroke="url(#bc)"/>
<path d="m215.29 241.08 45.757-101.95-105.08 12.076 59.327 89.876z" stroke="url(#bb)"/>
<path d="m261.04 139.13-45.757-37.496-59.327 49.572 105.08-12.076z" stroke="url(#ba)"/>
<path d="m261.04 139.13-45.757-37.496h147.45l-101.7 37.496z" stroke="url(#az)"/>
<path d="m220.45 306.3 50.814 13.88 30.399-46.048-81.213 32.168z" stroke="url(#b)"/>
<path d="m220.45 306.3 24.339-36.427 56.874 4.259-81.213 32.168z" stroke="url(#b)"/>
<path d="m33.933 502.22 122.03-30.532-52.534 55.97-69.494-25.438z" stroke="url(#ay)"/>
<path d="m114.29 396.3 31.2-36.445 51.449 58.926-82.649-22.481z" stroke="url(#aw)"/>
<path d="m-28.901 535.81 26.626-14.146 3.6558 41.488-30.282-27.342z" stroke="url(#av)"/>
<path d="m196.94 492.12 17.628 20.694-35.273 1.336 17.645-22.03z" stroke="url(#au)"/>
<path d="m57.086 541.66 7.0612 25.655-22.77-17.905 15.708-7.75z" stroke="url(#at)"/>
</g>
<path d="m64.448 177.03c14.253 0 25.808-11.561 25.808-25.822s-11.554-25.822-25.808-25.822-25.808 11.561-25.808 25.822 11.554 25.822 25.808 25.822z" fill="url(#as)" style="mix-blend-mode:screen"/>
<path d="m156.36 178.06c14.253 0 25.808-11.561 25.808-25.822s-11.555-25.822-25.808-25.822-25.808 11.561-25.808 25.822 11.555 25.822 25.808 25.822z" fill="url(#ar)" style="mix-blend-mode:screen"/>
<path d="m103.43 258.42c14.253 0 25.808-11.561 25.808-25.822s-11.555-25.822-25.808-25.822c-14.254 0-25.808 11.561-25.808 25.822s11.555 25.822 25.808 25.822z" fill="url(#aq)" style="mix-blend-mode:screen"/>
<path d="m16.989 226.5c14.253 0 25.808-11.56 25.808-25.821s-11.554-25.822-25.808-25.822c-14.253 0-25.808 11.561-25.808 25.822s11.555 25.821 25.808 25.821z" fill="url(#ap)" style="mix-blend-mode:screen"/>
<path d="m132.57 353.37c14.253 0 25.808-11.561 25.808-25.822s-11.555-25.822-25.808-25.822-25.808 11.561-25.808 25.822 11.555 25.822 25.808 25.822z" fill="url(#ao)" style="mix-blend-mode:screen"/>
<path d="m64.448 402.56c14.253 0 25.808-11.561 25.808-25.822s-11.554-25.822-25.808-25.822-25.808 11.561-25.808 25.822 11.554 25.822 25.808 25.822z" fill="url(#an)" style="mix-blend-mode:screen"/>
<path d="m146.81 290.64c14.253 0 25.808-11.561 25.808-25.822s-11.555-25.822-25.808-25.822-25.808 11.561-25.808 25.822 11.555 25.822 25.808 25.822z" fill="url(#al)" style="mix-blend-mode:screen"/>
</g>
<g clip-path="url(#bu)" opacity=".7">
<g stroke-linecap="round" stroke-linejoin="round" stroke-width=".77" style="mix-blend-mode:screen">
<path d="m1920.4 621-98.9 96.657 98.9 35.609v-132.27z" stroke="url(#ak)"/>
<path d="m1821.5 717.66 23.74 81.39 75.16-45.781-98.9-35.609z" stroke="url(#aj)"/>
<path d="m1821.5 717.66-94.9 35.609 118.64 45.781-23.74-81.39z" stroke="url(#ai)"/>
<path d="m1845.2 799.05 75.16 32.219v-78l-75.16 45.781z" stroke="url(#ah)"/>
<path d="m1726.6 753.27 38.98 59.343 79.66-13.562-118.64-45.781z" stroke="url(#ag)"/>
<path d="m1845.2 799.05 29.48 49.873-109.14-36.311 79.66-13.562z" stroke="url(#af)"/>
<path d="m1874.7 848.92 45.68-17.654-75.16-32.219 29.48 49.873z" stroke="url(#ae)"/>
<path d="m1874.7 848.92 45.68 43.393v-61.047l-45.68 17.654z" stroke="url(#ad)"/>
<path d="m1874.7 848.92-78.62 43.393-30.52-79.704 109.14 36.311z" stroke="url(#ac)"/>
<path d="m1765.6 812.61-66.1 49.189 96.62 30.515-30.52-79.704z" stroke="url(#aa)"/>
<path d="m1813 987.28 69.78 50.857-46.37-107.64-23.41 56.788z" stroke="url(#z)"/>
<path d="m1882.8 1038.1 37.58-81.389-83.95-26.256 46.37 107.64z" stroke="url(#y)"/>
<path d="m1882.8 1038.1 37.58 49.57v-130.96l-37.58 81.389z" stroke="url(#x)"/>
<path d="m1699.4 861.8-84.74-30.532 67.79 93.266 16.95-62.734z" stroke="url(#w)"/>
<path d="m1614.7 831.27v117l67.79-23.734-67.79-93.266z" stroke="url(#v)"/>
<path d="m1449.6 977.09-43.33 73.126 61.01 37.49-17.68-110.62z" stroke="url(#u)"/>
<path d="m1449.6 977.09 17.68 110.62 101.7-37.49-119.38-73.126z" stroke="url(#t)"/>
<path d="m1609.6 883.04-50.81-13.879-30.4 46.048 81.21-32.169z" stroke="url(#a)"/>
<path d="m1609.6 883.04-24.34 36.428-56.87-4.259 81.21-32.169z" stroke="url(#a)"/>
<path d="m1796.1 687.12-122.03 30.532 52.53-55.97 69.5 25.438z" stroke="url(#r)"/>
<path d="m1715.7 793.05-31.2 36.444-51.45-58.925 82.65 22.481z" stroke="url(#q)"/>
<path d="m1858.9 653.54-26.62 14.147-3.66-41.489 30.28 27.342z" stroke="url(#p)"/>
<path d="m1633.1 697.23-17.63-20.695 35.27-1.336-17.64 22.031z" stroke="url(#o)"/>
<path d="m1772.9 647.69-7.06-25.654 22.77 17.904-15.71 7.75z" stroke="url(#n)"/>
</g>
<path d="m1319.8 973.42c-14.26 0-25.81 11.561-25.81 25.822 0 14.258 11.55 25.818 25.81 25.818 14.25 0 25.81-11.56 25.81-25.818 0-14.261-11.56-25.822-25.81-25.822z" fill="url(#m)" style="mix-blend-mode:screen"/>
<path d="m1813 962.85c-14.25 0-25.81 11.561-25.81 25.822s11.56 25.821 25.81 25.821 25.81-11.56 25.81-25.821-11.56-25.822-25.81-25.822z" fill="url(#l)" style="mix-blend-mode:screen"/>
<path d="m1874.7 823.1c-14.25 0-25.81 11.56-25.81 25.821s11.56 25.822 25.81 25.822c14.26 0 25.81-11.561 25.81-25.822s-11.55-25.821-25.81-25.821z" fill="url(#k)" style="mix-blend-mode:screen"/>
<path d="m1697.4 835.98c-14.26 0-25.81 11.561-25.81 25.822s11.55 25.822 25.81 25.822c14.25 0 25.8-11.561 25.8-25.822s-11.55-25.822-25.8-25.822z" fill="url(#j)" style="mix-blend-mode:screen"/>
<path d="m1765.6 786.79c-14.25 0-25.81 11.56-25.81 25.821s11.56 25.822 25.81 25.822c14.26 0 25.81-11.561 25.81-25.822s-11.55-25.821-25.81-25.821z" fill="url(#i)" style="mix-blend-mode:screen"/>
<path d="m1682.8 899c-14.26 0-25.81 11.561-25.81 25.822s11.55 25.822 25.81 25.822c14.25 0 25.81-11.561 25.81-25.822s-11.56-25.822-25.81-25.822z" fill="url(#g)" opacity=".5" style="mix-blend-mode:screen"/>
<path d="m1873.8 823c-14.26 0-25.81 11.561-25.81 25.822s11.55 25.822 25.81 25.822c14.25 0 25.81-11.561 25.81-25.822s-11.56-25.822-25.81-25.822z" fill="url(#f)" opacity=".7" style="mix-blend-mode:screen"/>
</g>
</g>
</g>
<defs>
<filter id="bt" x="-4.0001" y="101" width="1928" height="888.39" color-interpolation-filters="sRGB" filterUnits="userSpaceOnUse">
<feFlood flood-opacity="0" result="BackgroundImageFix"/>
<feColorMatrix in="SourceAlpha" result="hardAlpha" values="0 0 0 0 0 0 0 0 0 0 0 0 0 0 0 0 0 0 127 0"/>
<feOffset dy="4"/>
<feGaussianBlur stdDeviation="2"/>
<feComposite in2="hardAlpha" operator="out"/>
<feColorMatrix values="0 0 0 0 0 0 0 0 0 0 0 0 0 0 0 0 0 0 0.25 0"/>
<feBlend in2="BackgroundImageFix" result="effect1_dropShadow_409_3899"/>
<feColorMatrix in="SourceAlpha" result="hardAlpha" values="0 0 0 0 0 0 0 0 0 0 0 0 0 0 0 0 0 0 127 0"/>
<feOffset dy="4"/>
<feGaussianBlur stdDeviation="2"/>
<feComposite in2="hardAlpha" operator="out"/>
<feColorMatrix values="0 0 0 0 0 0 0 0 0 0 0 0 0 0 0 0 0 0 0.25 0"/>
<feBlend in2="effect1_dropShadow_409_3899" result="effect2_dropShadow_409_3899"/>
<feBlend in="SourceGraphic" in2="effect2_dropShadow_409_3899" result="shape"/>
</filter>
<linearGradient id="br" x1="-91" x2="9.1597" y1="502.22" y2="502.22" gradientUnits="userSpaceOnUse">
<stop stop-color="#00B4F3" offset="0"/>
<stop stop-color="#0076AD" offset=".3"/>
<stop stop-color="#003765" offset=".64"/>
<stop stop-color="#001039" offset=".88"/>
<stop stop-color="#000128" offset="1"/>
</linearGradient>
<linearGradient id="bg" x1="-91" x2="-89.331" y1="431" y2="431" gradientUnits="userSpaceOnUse">
<stop stop-color="#00B4F3" offset="0"/>
<stop stop-color="#0076AD" offset=".3"/>
<stop stop-color="#003765" offset=".64"/>
<stop stop-color="#001039" offset=".88"/>
<stop stop-color="#000128" offset="1"/>
</linearGradient>
<linearGradient id="ax" x1="-15.847" x2="104.06" y1="430" y2="430" gradientUnits="userSpaceOnUse">
<stop stop-color="#00B4F3" offset="0"/>
<stop stop-color="#0076AD" offset=".3"/>
<stop stop-color="#003765" offset=".64"/>
<stop stop-color="#001039" offset=".88"/>
<stop stop-color="#000128" offset="1"/>
</linearGradient>
<linearGradient id="am" x1="-15.847" x2="104.06" y1="406.4" y2="406.4" gradientUnits="userSpaceOnUse">
<stop stop-color="#00B4F3" offset="0"/>
<stop stop-color="#0076AD" offset=".3"/>
<stop stop-color="#003765" offset=".64"/>
<stop stop-color="#001039" offset=".88"/>
<stop stop-color="#000128" offset="1"/>
</linearGradient>
<linearGradient id="ab" x1="-45.327" x2="65.082" y1="365.36" y2="365.36" gradientUnits="userSpaceOnUse">
<stop stop-color="#00B4F3" offset="0"/>
<stop stop-color="#0076AD" offset=".3"/>
<stop stop-color="#003765" offset=".64"/>
<stop stop-color="#001039" offset=".88"/>
<stop stop-color="#000128" offset="1"/>
</linearGradient>
<linearGradient id="s" x1="-45.327" x2="65.082" y1="336.89" y2="336.89" gradientUnits="userSpaceOnUse">
<stop stop-color="#00B4F3" offset="0"/>
<stop stop-color="#0076AD" offset=".3"/>
<stop stop-color="#003765" offset=".64"/>
<stop stop-color="#001039" offset=".88"/>
<stop stop-color="#000128" offset="1"/>
</linearGradient>
<linearGradient id="h" x1="-45.327" x2="34.584" y1="299.64" y2="299.64" gradientUnits="userSpaceOnUse">
<stop stop-color="#00B4F3" offset="0"/>
<stop stop-color="#0076AD" offset=".3"/>
<stop stop-color="#003765" offset=".64"/>
<stop stop-color="#001039" offset=".88"/>
<stop stop-color="#000128" offset="1"/>
</linearGradient>
<linearGradient id="e" x1="33.298" x2="131.19" y1="336.89" y2="336.89" gradientUnits="userSpaceOnUse">
<stop stop-color="#00B4F3" offset="0"/>
<stop stop-color="#0076AD" offset=".3"/>
<stop stop-color="#003765" offset=".64"/>
<stop stop-color="#001039" offset=".88"/>
<stop stop-color="#000128" offset="1"/>
</linearGradient>
<linearGradient id="d" x1="-7.0661" x2="104.06" y1="264.82" y2="264.82" gradientUnits="userSpaceOnUse">
<stop stop-color="#00B4F3" offset="0"/>
<stop stop-color="#0076AD" offset=".3"/>
<stop stop-color="#003765" offset=".64"/>
<stop stop-color="#001039" offset=".88"/>
<stop stop-color="#000128" offset="1"/>
</linearGradient>
<linearGradient id="c" x1="-7.0661" x2="104.06" y1="230.46" y2="230.46" gradientUnits="userSpaceOnUse">
<stop stop-color="#00B4F3" offset="0"/>
<stop stop-color="#0076AD" offset=".3"/>
<stop stop-color="#003765" offset=".64"/>
<stop stop-color="#001039" offset=".88"/>
<stop stop-color="#000128" offset="1"/>
</linearGradient>
<linearGradient id="bq" x1="-53.423" x2="17.64" y1="205.02" y2="205.02" gradientUnits="userSpaceOnUse">
<stop stop-color="#00B4F3" offset="0"/>
<stop stop-color="#0076AD" offset=".3"/>
<stop stop-color="#003765" offset=".64"/>
<stop stop-color="#001039" offset=".88"/>
<stop stop-color="#000128" offset="1"/>
</linearGradient>
<linearGradient id="bp" x1="-91" x2="65.082" y1="126.42" y2="126.42" gradientUnits="userSpaceOnUse">
<stop stop-color="#00B4F3" offset="0"/>
<stop stop-color="#0076AD" offset=".3"/>
<stop stop-color="#003765" offset=".64"/>
<stop stop-color="#001039" offset=".88"/>
<stop stop-color="#000128" offset="1"/>
</linearGradient>
<linearGradient id="bo" x1="-53.423" x2="65.082" y1="176.63" y2="176.63" gradientUnits="userSpaceOnUse">
<stop stop-color="#00B4F3" offset="0"/>
<stop stop-color="#0076AD" offset=".3"/>
<stop stop-color="#003765" offset=".64"/>
<stop stop-color="#001039" offset=".88"/>
<stop stop-color="#000128" offset="1"/>
</linearGradient>
<linearGradient id="bn" x1="-53.423" x2="65.082" y1="126.42" y2="126.42" gradientUnits="userSpaceOnUse">
<stop stop-color="#00B4F3" offset="0"/>
<stop stop-color="#0076AD" offset=".3"/>
<stop stop-color="#003765" offset=".64"/>
<stop stop-color="#001039" offset=".88"/>
<stop stop-color="#000128" offset="1"/>
</linearGradient>
<linearGradient id="bm" x1="129.9" x2="215.92" y1="311.45" y2="311.45" gradientUnits="userSpaceOnUse">
<stop stop-color="#00B4F3" offset="0"/>
<stop stop-color="#0076AD" offset=".3"/>
<stop stop-color="#003765" offset=".64"/>
<stop stop-color="#001039" offset=".88"/>
<stop stop-color="#000128" offset="1"/>
</linearGradient>
<linearGradient id="bl" x1="102.79" x2="148.13" y1="280.08" y2="280.08" gradientUnits="userSpaceOnUse">
<stop stop-color="#00B4F3" offset="0"/>
<stop stop-color="#0076AD" offset=".3"/>
<stop stop-color="#003765" offset=".64"/>
<stop stop-color="#001039" offset=".88"/>
<stop stop-color="#000128" offset="1"/>
</linearGradient>
<linearGradient id="bk" x1="33.298" x2="131.19" y1="280.08" y2="280.08" gradientUnits="userSpaceOnUse">
<stop stop-color="#00B4F3" offset="0"/>
<stop stop-color="#0076AD" offset=".3"/>
<stop stop-color="#003765" offset=".64"/>
<stop stop-color="#001039" offset=".88"/>
<stop stop-color="#000128" offset="1"/>
</linearGradient>
<linearGradient id="bj" x1="16.355" x2="104.06" y1="191.89" y2="191.89" gradientUnits="userSpaceOnUse">
<stop stop-color="#00B4F3" offset="0"/>
<stop stop-color="#0076AD" offset=".3"/>
<stop stop-color="#003765" offset=".64"/>
<stop stop-color="#001039" offset=".88"/>
<stop stop-color="#000128" offset="1"/>
</linearGradient>
<linearGradient id="bi" x1="63.814" x2="156.61" y1="126.42" y2="126.42" gradientUnits="userSpaceOnUse">
<stop stop-color="#00B4F3" offset="0"/>
<stop stop-color="#0076AD" offset=".3"/>
<stop stop-color="#003765" offset=".64"/>
<stop stop-color="#001039" offset=".88"/>
<stop stop-color="#000128" offset="1"/>
</linearGradient>
<linearGradient id="bh" x1="63.814" x2="156.61" y1="191.89" y2="191.89" gradientUnits="userSpaceOnUse">
<stop stop-color="#00B4F3" offset="0"/>
<stop stop-color="#0076AD" offset=".3"/>
<stop stop-color="#003765" offset=".64"/>
<stop stop-color="#001039" offset=".88"/>
<stop stop-color="#000128" offset="1"/>
</linearGradient>
<linearGradient id="bf" x1="102.79" x2="156.61" y1="208.01" y2="208.01" gradientUnits="userSpaceOnUse">
<stop stop-color="#00B4F3" offset="0"/>
<stop stop-color="#0076AD" offset=".3"/>
<stop stop-color="#003765" offset=".64"/>
<stop stop-color="#001039" offset=".88"/>
<stop stop-color="#000128" offset="1"/>
</linearGradient>
<linearGradient id="be" x1="146.85" x2="215.92" y1="299.57" y2="299.57" gradientUnits="userSpaceOnUse">
<stop stop-color="#00B4F3" offset="0"/>
<stop stop-color="#0076AD" offset=".3"/>
<stop stop-color="#003765" offset=".64"/>
<stop stop-color="#001039" offset=".88"/>
<stop stop-color="#000128" offset="1"/>
</linearGradient>
<linearGradient id="bd" x1="146.85" x2="215.92" y1="208.01" y2="208.01" gradientUnits="userSpaceOnUse">
<stop stop-color="#00B4F3" offset="0"/>
<stop stop-color="#0076AD" offset=".3"/>
<stop stop-color="#003765" offset=".64"/>
<stop stop-color="#001039" offset=".88"/>
<stop stop-color="#000128" offset="1"/>
</linearGradient>
<linearGradient id="bc" x1="63.814" x2="215.92" y1="126.42" y2="126.42" gradientUnits="userSpaceOnUse">
<stop stop-color="#00B4F3" offset="0"/>
<stop stop-color="#0076AD" offset=".3"/>
<stop stop-color="#003765" offset=".64"/>
<stop stop-color="#001039" offset=".88"/>
<stop stop-color="#000128" offset="1"/>
</linearGradient>
<linearGradient id="bb" x1="155.33" x2="261.68" y1="190.11" y2="190.11" gradientUnits="userSpaceOnUse">
<stop stop-color="#00B4F3" offset="0"/>
<stop stop-color="#0076AD" offset=".3"/>
<stop stop-color="#003765" offset=".64"/>
<stop stop-color="#001039" offset=".88"/>
<stop stop-color="#000128" offset="1"/>
</linearGradient>
<linearGradient id="ba" x1="155.33" x2="261.68" y1="126.42" y2="126.42" gradientUnits="userSpaceOnUse">
<stop stop-color="#00B4F3" offset="0"/>
<stop stop-color="#0076AD" offset=".3"/>
<stop stop-color="#003765" offset=".64"/>
<stop stop-color="#001039" offset=".88"/>
<stop stop-color="#000128" offset="1"/>
</linearGradient>
<linearGradient id="az" x1="214.65" x2="363.38" y1="120.39" y2="120.39" gradientUnits="userSpaceOnUse">
<stop stop-color="#00B4F3" offset="0"/>
<stop stop-color="#0076AD" offset=".3"/>
<stop stop-color="#003765" offset=".64"/>
<stop stop-color="#001039" offset=".88"/>
<stop stop-color="#000128" offset="1"/>
</linearGradient>
<linearGradient id="b" x1="249.1" x2="272.9" y1="318.92" y2="261.55" gradientUnits="userSpaceOnUse">
<stop stop-color="#00B4F3" offset="0"/>
<stop stop-color="#0076AD" offset=".3"/>
<stop stop-color="#003765" offset=".64"/>
<stop stop-color="#001039" offset=".88"/>
<stop stop-color="#000128" offset="1"/>
</linearGradient>
<linearGradient id="ay" x1="33.298" x2="156.61" y1="499.67" y2="499.67" gradientUnits="userSpaceOnUse">
<stop stop-color="#00B4F3" offset="0"/>
<stop stop-color="#0076AD" offset=".3"/>
<stop stop-color="#003765" offset=".64"/>
<stop stop-color="#001039" offset=".88"/>
<stop stop-color="#000128" offset="1"/>
</linearGradient>
<linearGradient id="aw" x1="113.66" x2="197.58" y1="389.32" y2="389.32" gradientUnits="userSpaceOnUse">
<stop stop-color="#00B4F3" offset="0"/>
<stop stop-color="#0076AD" offset=".3"/>
<stop stop-color="#003765" offset=".64"/>
<stop stop-color="#001039" offset=".88"/>
<stop stop-color="#000128" offset="1"/>
</linearGradient>
<linearGradient id="av" x1="-29.552" x2="2.015" y1="542.41" y2="542.41" gradientUnits="userSpaceOnUse">
<stop stop-color="#00B4F3" offset="0"/>
<stop stop-color="#0076AD" offset=".3"/>
<stop stop-color="#003765" offset=".64"/>
<stop stop-color="#001039" offset=".88"/>
<stop stop-color="#000128" offset="1"/>
</linearGradient>
<linearGradient id="au" x1="178.66" x2="215.22" y1="503.14" y2="503.14" gradientUnits="userSpaceOnUse">
<stop stop-color="#00B4F3" offset="0"/>
<stop stop-color="#0076AD" offset=".3"/>
<stop stop-color="#003765" offset=".64"/>
<stop stop-color="#001039" offset=".88"/>
<stop stop-color="#000128" offset="1"/>
</linearGradient>
<linearGradient id="at" x1="40.727" x2="64.798" y1="554.49" y2="554.49" gradientUnits="userSpaceOnUse">
<stop stop-color="#00B4F3" offset="0"/>
<stop stop-color="#0076AD" offset=".3"/>
<stop stop-color="#003765" offset=".64"/>
<stop stop-color="#001039" offset=".88"/>
<stop stop-color="#000128" offset="1"/>
</linearGradient>
<radialGradient id="as" cx="0" cy="0" r="1" gradientTransform="translate(64.448 101.84) scale(25.808 25.822)" gradientUnits="userSpaceOnUse">
<stop stop-color="#fff" offset="0"/>
<stop stop-color="#CBCBCB" offset=".11"/>
<stop stop-color="#959595" offset=".24"/>
<stop stop-color="#686868" offset=".37"/>
<stop stop-color="#424242" offset=".5"/>
<stop stop-color="#252525" offset=".63"/>
<stop stop-color="#101010" offset=".75"/>
<stop stop-color="#040404" offset=".88"/>
<stop offset="1"/>
</radialGradient>
<radialGradient id="ar" cx="0" cy="0" r="1" gradientTransform="translate(156.36 152.24) scale(.83466 .83512)" gradientUnits="userSpaceOnUse">
<stop stop-color="#fff" offset="0"/>
<stop stop-color="#CBCBCB" offset=".11"/>
<stop stop-color="#959595" offset=".24"/>
<stop stop-color="#686868" offset=".37"/>
<stop stop-color="#424242" offset=".5"/>
<stop stop-color="#252525" offset=".63"/>
<stop stop-color="#101010" offset=".75"/>
<stop stop-color="#040404" offset=".88"/>
<stop offset="1"/>
</radialGradient>
<radialGradient id="aq" cx="0" cy="0" r="1" gradientTransform="translate(103.43 232.6) scale(.83466 .83512)" gradientUnits="userSpaceOnUse">
<stop stop-color="#fff" offset="0"/>
<stop stop-color="#CBCBCB" offset=".11"/>
<stop stop-color="#959595" offset=".24"/>
<stop stop-color="#686868" offset=".37"/>
<stop stop-color="#424242" offset=".5"/>
<stop stop-color="#252525" offset=".63"/>
<stop stop-color="#101010" offset=".75"/>
<stop stop-color="#040404" offset=".88"/>
<stop offset="1"/>
</radialGradient>
<radialGradient id="ap" cx="0" cy="0" r="1" gradientTransform="translate(16.989 200.68) scale(25.808 25.822)" gradientUnits="userSpaceOnUse">
<stop stop-color="#fff" offset="0"/>
<stop stop-color="#CBCBCB" offset=".11"/>
<stop stop-color="#959595" offset=".24"/>
<stop stop-color="#686868" offset=".37"/>
<stop stop-color="#424242" offset=".5"/>
<stop stop-color="#252525" offset=".63"/>
<stop stop-color="#101010" offset=".75"/>
<stop stop-color="#040404" offset=".88"/>
<stop offset="1"/>
</radialGradient>
<radialGradient id="ao" cx="0" cy="0" r="1" gradientTransform="translate(132.57 327.55) scale(.83466 .83512)" gradientUnits="userSpaceOnUse">
<stop stop-color="#fff" offset="0"/>
<stop stop-color="#CBCBCB" offset=".11"/>
<stop stop-color="#959595" offset=".24"/>
<stop stop-color="#686868" offset=".37"/>
<stop stop-color="#424242" offset=".5"/>
<stop stop-color="#252525" offset=".63"/>
<stop stop-color="#101010" offset=".75"/>
<stop stop-color="#040404" offset=".88"/>
<stop offset="1"/>
</radialGradient>
<radialGradient id="an" cx="0" cy="0" r="1" gradientTransform="translate(64.448 376.74) scale(25.808 25.822)" gradientUnits="userSpaceOnUse">
<stop stop-color="#fff" offset="0"/>
<stop stop-color="#CBCBCB" offset=".11"/>
<stop stop-color="#959595" offset=".24"/>
<stop stop-color="#686868" offset=".37"/>
<stop stop-color="#424242" offset=".5"/>
<stop stop-color="#252525" offset=".63"/>
<stop stop-color="#101010" offset=".75"/>
<stop stop-color="#040404" offset=".88"/>
<stop offset="1"/>
</radialGradient>
<radialGradient id="al" cx="0" cy="0" r="1" gradientTransform="translate(146.81 264.82) scale(25.808 25.822)" gradientUnits="userSpaceOnUse">
<stop stop-color="#fff" offset="0"/>
<stop stop-color="#CBCBCB" offset=".11"/>
<stop stop-color="#959595" offset=".24"/>
<stop stop-color="#686868" offset=".37"/>
<stop stop-color="#424242" offset=".5"/>
<stop stop-color="#252525" offset=".63"/>
<stop stop-color="#101010" offset=".75"/>
<stop stop-color="#040404" offset=".88"/>
<stop offset="1"/>
</radialGradient>
<linearGradient id="ak" x1="1921" x2="1820.8" y1="687.12" y2="687.12" gradientUnits="userSpaceOnUse">
<stop stop-color="#00B4F3" offset="0"/>
<stop stop-color="#0076AD" offset=".3"/>
<stop stop-color="#003765" offset=".64"/>
<stop stop-color="#001039" offset=".88"/>
<stop stop-color="#000128" offset="1"/>
</linearGradient>
<linearGradient id="aj" x1="1921" x2="1919.3" y1="758.34" y2="758.34" gradientUnits="userSpaceOnUse">
<stop stop-color="#00B4F3" offset="0"/>
<stop stop-color="#0076AD" offset=".3"/>
<stop stop-color="#003765" offset=".64"/>
<stop stop-color="#001039" offset=".88"/>
<stop stop-color="#000128" offset="1"/>
</linearGradient>
<linearGradient id="ai" x1="1845.8" x2="1725.9" y1="758.34" y2="758.34" gradientUnits="userSpaceOnUse">
<stop stop-color="#00B4F3" offset="0"/>
<stop stop-color="#0076AD" offset=".3"/>
<stop stop-color="#003765" offset=".64"/>
<stop stop-color="#001039" offset=".88"/>
<stop stop-color="#000128" offset="1"/>
</linearGradient>
<linearGradient id="ah" x1="1921" x2="1844.6" y1="792.27" y2="792.27" gradientUnits="userSpaceOnUse">
<stop stop-color="#00B4F3" offset="0"/>
<stop stop-color="#0076AD" offset=".3"/>
<stop stop-color="#003765" offset=".64"/>
<stop stop-color="#001039" offset=".88"/>
<stop stop-color="#000128" offset="1"/>
</linearGradient>
<linearGradient id="ag" x1="1845.8" x2="1725.9" y1="782.95" y2="782.95" gradientUnits="userSpaceOnUse">
<stop stop-color="#00B4F3" offset="0"/>
<stop stop-color="#0076AD" offset=".3"/>
<stop stop-color="#003765" offset=".64"/>
<stop stop-color="#001039" offset=".88"/>
<stop stop-color="#000128" offset="1"/>
</linearGradient>
<linearGradient id="af" x1="1875.3" x2="1764.9" y1="823.98" y2="823.98" gradientUnits="userSpaceOnUse">
<stop stop-color="#00B4F3" offset="0"/>
<stop stop-color="#0076AD" offset=".3"/>
<stop stop-color="#003765" offset=".64"/>
<stop stop-color="#001039" offset=".88"/>
<stop stop-color="#000128" offset="1"/>
</linearGradient>
<linearGradient id="ae" x1="1921" x2="1844.6" y1="823.98" y2="823.98" gradientUnits="userSpaceOnUse">
<stop stop-color="#00B4F3" offset="0"/>
<stop stop-color="#0076AD" offset=".3"/>
<stop stop-color="#003765" offset=".64"/>
<stop stop-color="#001039" offset=".88"/>
<stop stop-color="#000128" offset="1"/>
</linearGradient>
<linearGradient id="ad" x1="1921" x2="1874" y1="861.8" y2="861.8" gradientUnits="userSpaceOnUse">
<stop stop-color="#00B4F3" offset="0"/>
<stop stop-color="#0076AD" offset=".3"/>
<stop stop-color="#003765" offset=".64"/>
<stop stop-color="#001039" offset=".88"/>
<stop stop-color="#000128" offset="1"/>
</linearGradient>
<linearGradient id="ac" x1="1875.3" x2="1764.9" y1="852.46" y2="852.46" gradientUnits="userSpaceOnUse">
<stop stop-color="#00B4F3" offset="0"/>
<stop stop-color="#0076AD" offset=".3"/>
<stop stop-color="#003765" offset=".64"/>
<stop stop-color="#001039" offset=".88"/>
<stop stop-color="#000128" offset="1"/>
</linearGradient>
<linearGradient id="aa" x1="1796.7" x2="1698.8" y1="852.46" y2="852.46" gradientUnits="userSpaceOnUse">
<stop stop-color="#00B4F3" offset="0"/>
<stop stop-color="#0076AD" offset=".3"/>
<stop stop-color="#003765" offset=".64"/>
<stop stop-color="#001039" offset=".88"/>
<stop stop-color="#000128" offset="1"/>
</linearGradient>
<linearGradient id="z" x1="1883.4" x2="1812.4" y1="984.33" y2="984.33" gradientUnits="userSpaceOnUse">
<stop stop-color="#00B4F3" offset="0"/>
<stop stop-color="#0076AD" offset=".3"/>
<stop stop-color="#003765" offset=".64"/>
<stop stop-color="#001039" offset=".88"/>
<stop stop-color="#000128" offset="1"/>
</linearGradient>
<linearGradient id="y" x1="1921" x2="1835.8" y1="984.33" y2="984.33" gradientUnits="userSpaceOnUse">
<stop stop-color="#00B4F3" offset="0"/>
<stop stop-color="#0076AD" offset=".3"/>
<stop stop-color="#003765" offset=".64"/>
<stop stop-color="#001039" offset=".88"/>
<stop stop-color="#000128" offset="1"/>
</linearGradient>
<linearGradient id="x" x1="1921" x2="1882.1" y1="1022.2" y2="1022.2" gradientUnits="userSpaceOnUse">
<stop stop-color="#00B4F3" offset="0"/>
<stop stop-color="#0076AD" offset=".3"/>
<stop stop-color="#003765" offset=".64"/>
<stop stop-color="#001039" offset=".88"/>
<stop stop-color="#000128" offset="1"/>
</linearGradient>
<linearGradient id="w" x1="1700.1" x2="1614.1" y1="877.9" y2="877.9" gradientUnits="userSpaceOnUse">
<stop stop-color="#00B4F3" offset="0"/>
<stop stop-color="#0076AD" offset=".3"/>
<stop stop-color="#003765" offset=".64"/>
<stop stop-color="#001039" offset=".88"/>
<stop stop-color="#000128" offset="1"/>
</linearGradient>
<linearGradient id="v" x1="1683.2" x2="1614.1" y1="889.77" y2="889.77" gradientUnits="userSpaceOnUse">
<stop stop-color="#00B4F3" offset="0"/>
<stop stop-color="#0076AD" offset=".3"/>
<stop stop-color="#003765" offset=".64"/>
<stop stop-color="#001039" offset=".88"/>
<stop stop-color="#000128" offset="1"/>
</linearGradient>
<linearGradient id="u" x1="1467.9" x2="1405.6" y1="1032.4" y2="1032.4" gradientUnits="userSpaceOnUse">
<stop stop-color="#00B4F3" offset="0"/>
<stop stop-color="#0076AD" offset=".3"/>
<stop stop-color="#003765" offset=".64"/>
<stop stop-color="#001039" offset=".88"/>
<stop stop-color="#000128" offset="1"/>
</linearGradient>
<linearGradient id="t" x1="1569.6" x2="1448.9" y1="1032.4" y2="1032.4" gradientUnits="userSpaceOnUse">
<stop stop-color="#00B4F3" offset="0"/>
<stop stop-color="#0076AD" offset=".3"/>
<stop stop-color="#003765" offset=".64"/>
<stop stop-color="#001039" offset=".88"/>
<stop stop-color="#000128" offset="1"/>
</linearGradient>
<linearGradient id="a" x1="1580.9" x2="1557.1" y1="870.43" y2="927.8" gradientUnits="userSpaceOnUse">
<stop stop-color="#00B4F3" offset="0"/>
<stop stop-color="#0076AD" offset=".3"/>
<stop stop-color="#003765" offset=".64"/>
<stop stop-color="#001039" offset=".88"/>
<stop stop-color="#000128" offset="1"/>
</linearGradient>
<linearGradient id="r" x1="1796.7" x2="1673.4" y1="689.68" y2="689.68" gradientUnits="userSpaceOnUse">
<stop stop-color="#00B4F3" offset="0"/>
<stop stop-color="#0076AD" offset=".3"/>
<stop stop-color="#003765" offset=".64"/>
<stop stop-color="#001039" offset=".88"/>
<stop stop-color="#000128" offset="1"/>
</linearGradient>
<linearGradient id="q" x1="1716.3" x2="1632.4" y1="800.03" y2="800.03" gradientUnits="userSpaceOnUse">
<stop stop-color="#00B4F3" offset="0"/>
<stop stop-color="#0076AD" offset=".3"/>
<stop stop-color="#003765" offset=".64"/>
<stop stop-color="#001039" offset=".88"/>
<stop stop-color="#000128" offset="1"/>
</linearGradient>
<linearGradient id="p" x1="1859.6" x2="1828" y1="646.94" y2="646.94" gradientUnits="userSpaceOnUse">
<stop stop-color="#00B4F3" offset="0"/>
<stop stop-color="#0076AD" offset=".3"/>
<stop stop-color="#003765" offset=".64"/>
<stop stop-color="#001039" offset=".88"/>
<stop stop-color="#000128" offset="1"/>
</linearGradient>
<linearGradient id="o" x1="1651.3" x2="1614.8" y1="686.21" y2="686.21" gradientUnits="userSpaceOnUse">
<stop stop-color="#00B4F3" offset="0"/>
<stop stop-color="#0076AD" offset=".3"/>
<stop stop-color="#003765" offset=".64"/>
<stop stop-color="#001039" offset=".88"/>
<stop stop-color="#000128" offset="1"/>
</linearGradient>
<linearGradient id="n" x1="1789.3" x2="1765.2" y1="634.86" y2="634.86" gradientUnits="userSpaceOnUse">
<stop stop-color="#00B4F3" offset="0"/>
<stop stop-color="#0076AD" offset=".3"/>
<stop stop-color="#003765" offset=".64"/>
<stop stop-color="#001039" offset=".88"/>
<stop stop-color="#000128" offset="1"/>
</linearGradient>
<radialGradient id="m" cx="0" cy="0" r="1" gradientTransform="translate(1319.8 999.24) rotate(180) scale(25.808 25.822)" gradientUnits="userSpaceOnUse">
<stop stop-color="#fff" offset="0"/>
<stop stop-color="#CBCBCB" offset=".11"/>
<stop stop-color="#959595" offset=".24"/>
<stop stop-color="#686868" offset=".37"/>
<stop stop-color="#424242" offset=".5"/>
<stop stop-color="#252525" offset=".63"/>
<stop stop-color="#101010" offset=".75"/>
<stop stop-color="#040404" offset=".88"/>
<stop offset="1"/>
</radialGradient>
<radialGradient id="l" cx="0" cy="0" r="1" gradientTransform="translate(1813 988.67) rotate(180) scale(25.808 25.822)" gradientUnits="userSpaceOnUse">
<stop stop-color="#fff" offset="0"/>
<stop stop-color="#CBCBCB" offset=".11"/>
<stop stop-color="#959595" offset=".24"/>
<stop stop-color="#686868" offset=".37"/>
<stop stop-color="#424242" offset=".5"/>
<stop stop-color="#252525" offset=".63"/>
<stop stop-color="#101010" offset=".75"/>
<stop stop-color="#040404" offset=".88"/>
<stop offset="1"/>
</radialGradient>
<radialGradient id="k" cx="0" cy="0" r="1" gradientTransform="translate(1874.7 848.92) rotate(180) scale(.83466 .83512)" gradientUnits="userSpaceOnUse">
<stop stop-color="#fff" offset="0"/>
<stop stop-color="#CBCBCB" offset=".11"/>
<stop stop-color="#959595" offset=".24"/>
<stop stop-color="#686868" offset=".37"/>
<stop stop-color="#424242" offset=".5"/>
<stop stop-color="#252525" offset=".63"/>
<stop stop-color="#101010" offset=".75"/>
<stop stop-color="#040404" offset=".88"/>
<stop offset="1"/>
</radialGradient>
<radialGradient id="j" cx="0" cy="0" r="1" gradientTransform="translate(1697.4 861.8) rotate(180) scale(.83466 .83512)" gradientUnits="userSpaceOnUse">
<stop stop-color="#fff" offset="0"/>
<stop stop-color="#CBCBCB" offset=".11"/>
<stop stop-color="#959595" offset=".24"/>
<stop stop-color="#686868" offset=".37"/>
<stop stop-color="#424242" offset=".5"/>
<stop stop-color="#252525" offset=".63"/>
<stop stop-color="#101010" offset=".75"/>
<stop stop-color="#040404" offset=".88"/>
<stop offset="1"/>
</radialGradient>
<radialGradient id="i" cx="0" cy="0" r="1" gradientTransform="translate(1765.6 812.61) rotate(180) scale(25.808 25.822)" gradientUnits="userSpaceOnUse">
<stop stop-color="#fff" offset="0"/>
<stop stop-color="#CBCBCB" offset=".11"/>
<stop stop-color="#959595" offset=".24"/>
<stop stop-color="#686868" offset=".37"/>
<stop stop-color="#424242" offset=".5"/>
<stop stop-color="#252525" offset=".63"/>
<stop stop-color="#101010" offset=".75"/>
<stop stop-color="#040404" offset=".88"/>
<stop offset="1"/>
</radialGradient>
<radialGradient id="g" cx="0" cy="0" r="1" gradientTransform="translate(1682.8 924.82) rotate(180) scale(25.808 25.822)" gradientUnits="userSpaceOnUse">
<stop stop-color="#fff" offset="0"/>
<stop stop-color="#CBCBCB" offset=".11"/>
<stop stop-color="#959595" offset=".24"/>
<stop stop-color="#686868" offset=".37"/>
<stop stop-color="#424242" offset=".5"/>
<stop stop-color="#252525" offset=".63"/>
<stop stop-color="#101010" offset=".75"/>
<stop stop-color="#040404" offset=".88"/>
<stop offset="1"/>
</radialGradient>
<radialGradient id="f" cx="0" cy="0" r="1" gradientTransform="translate(1873.8 848.82) rotate(180) scale(25.808 25.822)" gradientUnits="userSpaceOnUse">
<stop stop-color="#fff" offset="0"/>
<stop stop-color="#CBCBCB" offset=".11"/>
<stop stop-color="#959595" offset=".24"/>
<stop stop-color="#686868" offset=".37"/>
<stop stop-color="#424242" offset=".5"/>
<stop stop-color="#252525" offset=".63"/>
<stop stop-color="#101010" offset=".75"/>
<stop stop-color="#040404" offset=".88"/>
<stop offset="1"/>
</radialGradient>
<clipPath id="bu">
<rect transform="translate(1921 1028) rotate(180)" width="627" height="468" fill="#fff"/>
</clipPath>
</defs>
</svg>
